<svg id="icon-16-payment-and-delivery" viewBox="0 0 42 31" xmlns="http://www.w3.org/2000/svg">
        <g>
            <path d="M15.4359 24.5C15.2179 26.0295 14.4554 27.4291 13.2885 28.4416C12.1215 29.454 10.6284 30.0115 9.08337 30.0115C7.53839 30.0115 6.04528 29.454 4.8783 28.4416C3.71131 27.4291 2.94882 26.0295 2.73087 24.5H0.833374V2.49999C0.833374 2.01376 1.02653 1.54744 1.37034 1.20363C1.71416 0.859811 2.18048 0.666656 2.66671 0.666656H28.3334C28.8196 0.666656 29.2859 0.859811 29.6297 1.20363C29.9736 1.54744 30.1667 2.01376 30.1667 2.49999V6.16666H35.6667L41.1667 13.6027V24.5H37.4359C37.2179 26.0295 36.4554 27.4291 35.2884 28.4416C34.1215 29.454 32.6284 30.0115 31.0834 30.0115C29.5384 30.0115 28.0453 29.454 26.8783 28.4416C25.7113 27.4291 24.9488 26.0295 24.7309 24.5H15.4359ZM26.5 4.33332H4.50004V19.0917C5.2234 18.3532 6.11448 17.8004 7.09742 17.4804C8.08036 17.1603 9.12608 17.0825 10.1456 17.2535C11.1651 17.4246 12.1281 17.8394 12.9528 18.4626C13.7775 19.0859 14.4394 19.8992 14.8822 20.8333H25.2845C25.5925 20.1862 26.005 19.5977 26.5 19.0917V4.33332ZM30.1667 15.3333H37.5V14.8108L33.8187 9.83332H30.1667V15.3333ZM31.0834 26.3333C31.813 26.3333 32.5127 26.0435 33.0286 25.5276C33.5445 25.0117 33.8343 24.312 33.8343 23.5824C33.8343 22.8528 33.5445 22.1531 33.0286 21.6372C32.5127 21.1213 31.813 20.8315 31.0834 20.8315C30.3538 20.8315 29.6541 21.1213 29.1382 21.6372C28.6223 22.1531 28.3325 22.8528 28.3325 23.5824C28.3325 24.312 28.6223 25.0117 29.1382 25.5276C29.6541 26.0435 30.3538 26.3333 31.0834 26.3333ZM11.8334 23.5833C11.8334 23.2222 11.7622 22.8646 11.624 22.5309C11.4858 22.1973 11.2833 21.8941 11.0279 21.6388C10.7726 21.3834 10.4694 21.1809 10.1358 21.0427C9.80211 20.9045 9.44451 20.8333 9.08337 20.8333C8.72224 20.8333 8.36464 20.9045 8.03099 21.0427C7.69735 21.1809 7.39419 21.3834 7.13883 21.6388C6.88347 21.8941 6.6809 22.1973 6.5427 22.5309C6.4045 22.8646 6.33337 23.2222 6.33337 23.5833C6.33337 24.3127 6.6231 25.0121 7.13883 25.5279C7.65455 26.0436 8.35403 26.3333 9.08337 26.3333C9.81272 26.3333 10.5122 26.0436 11.0279 25.5279C11.5436 25.0121 11.8334 24.3127 11.8334 23.5833Z"></path>
        </g>
    </svg>