<svg id="Layer_1" data-name="Layer 1" xmlns="http://www.w3.org/2000/svg" viewBox="0 0 590.59 80.03"><path d="M0,76.49c11-.48,11.83-2.56,11.83-12.2V15.74C11.59,6.22,11.1,4.15.85,3.66V1.83H30.38c17,0,23.54,6.22,23.54,16.84s-10.25,15.61-15.74,17v.24c10.74,1.59,21.11,7.93,21.11,19.64,0,8.42-4.27,14.4-11.71,18.42C41.36,77.1,33.67,78.2,24.4,78.2H0ZM27.21,35.14c13.54,0,19.27-5.74,19.27-15.37,0-5.37-1.95-15.5-19.89-15.5a56.75,56.75,0,0,0-6.7.25c-.86.12-1.47.36-1.47,2.68V35.14ZM18.42,37.7V64.9C18.42,73,20,75.4,29.64,75.4,41.6,75.4,51,70.76,51,57.34S41.23,37.7,27.08,37.7Z" transform="translate(0 0)"/><path d="M67.83,76.49c11.47-.61,12.32-2.68,12.32-12.07V16.59c0-10.49-1-12.56-11.1-13V1.83h53.07c0,4.27.61,11.47,1.1,18.67l-2.08.36c-2.56-12.44-4.88-16.1-19.64-16.1H90c-3.3,0-3.42.24-3.42,3.42V36.72h14.27c9.64,0,12-1.22,13.79-9.39h2.07V50h-2.07c-2-9.39-4.52-9.88-13.79-9.88H86.62V63.93c0,11.47,5,11.47,15.13,11.47,7.44,0,14.76-.13,18.66-4.64a38.07,38.07,0,0,0,6.83-12.08h2.08c-1.1,4.52-3.42,15.37-4.39,19.52H67.83Z" transform="translate(0 0)"/><path d="M195.07,59.17c-.85,4-3.53,13.66-4.39,19H137.61V76.49C148,76,148.84,73.93,148.84,63.68V15.74c0-9.52-.86-11.59-11.71-12.2V1.83h30.25V3.54c-11.1.61-12.2,2.68-12.2,12.2V62c0,12.93,2.93,13.29,15.37,13.29,7.32,0,13.18-1.46,16-4.39a48.18,48.18,0,0,0,6.35-11.71Z" transform="translate(0 0)"/><path d="M201.42,76.49C212,76,213,73.93,213,64.29V15.74c0-9.52-1-11.59-11.59-12.2V1.83h29.52V3.54c-10.49.61-11.59,2.68-11.59,12.2V64.29c0,9.64,1.1,11.72,11.59,12.2V78.2H201.42Z" transform="translate(0 0)"/><path d="M239.36,76.49C246.56,76,250,73.57,251,70.15c1-3.66,1.34-10.37,1.34-22.69V21c0-10.86-.61-10.25-2.8-12.94-2.08-2.44-4.64-3.78-11.11-4.51V1.83h15l56.36,64.42h.37V31.48c0-23.79-.13-27-14.4-27.94V1.83H326V3.54c-7.08.61-10.13,2.93-11.23,6.47-1.1,3.78-1.22,10-1.22,21.47V79.06h-1.34L256,15h-.24V47.46c.12,12.32.24,19,1.1,22.45,1.09,3.78,4.75,6,12.93,6.58V78.2H239.36Z" transform="translate(0 0)"/><path d="M416.62,38.92c0,24.28-19.4,41.11-42.57,41.11-22.33,0-40.38-16.47-40.38-39,0-20.49,15.85-41,43.06-41C397.1,0,416.62,15.25,416.62,38.92Zm-74.41-1.46c0,23.78,15,39.64,34.76,39.64,16.47,0,31.36-11.34,31.36-33.06,0-27.69-15.5-41.11-35.14-41.11C357,3.05,342.21,13.91,342.21,37.46Z" transform="translate(0 0)"/><path d="M506.9,3.54c-8.78,1.22-9.64,2.93-15,13.54C489.82,20.62,474,55,464.08,79.54h-1.59c-7.93-21.83-16.95-43.3-25.61-65.14C433.46,5.74,431.63,4,424.19,3.54V1.83h26.35V3.54c-6.1.73-8.78,1.1-8.78,4a12.16,12.16,0,0,0,1.09,4.27c2.69,7.07,12.08,31.1,22.45,56h.12c2.44-5.12,23.42-52.46,23.42-59.17,0-3.66-2.92-4-9.27-5.12V1.83H506.9Z" transform="translate(0 0)"/><path d="M562.66,76.49c7-1,9.51-1.7,9.51-4.63,0-3.17-3.66-12.69-8.17-23.91H535.82c-1.22,2.31-7.32,18.78-7.32,22.57,0,4.14,3.29,4.88,10.12,6V78.2H510.93V76.49c8.54-1.7,10.12-2.8,14.64-13.78L552,.61,553.5,0l8.18,22.57c5.61,15.25,11.1,30.5,15.74,42.21,3.66,9,4.63,10.37,13.17,11.71V78.2H562.66ZM550.82,11.35C545.94,22.21,541.18,33.8,537.28,44H562.9L551.07,11.35Z" transform="translate(0 0)"/></svg>